<?xml version="1.0" encoding="UTF-8" standalone="no"?>
<!DOCTYPE svg PUBLIC "-//W3C//DTD SVG 1.1//EN" "http://www.w3.org/Graphics/SVG/1.1/DTD/svg11.dtd">
<svg width="100%" height="100%" viewBox="0 0 1742 345" version="1.1" xmlns="http://www.w3.org/2000/svg" xmlns:xlink="http://www.w3.org/1999/xlink" xml:space="preserve" xmlns:serif="http://www.serif.com/" style="fill-rule:evenodd;clip-rule:evenodd;stroke-linejoin:round;stroke-miterlimit:2;">
    <g transform="matrix(0.529596,0,0,0.543681,32.6775,-318.172)">
        <path d="M710.462,830.338L710.462,871.25L821.673,871.25L821.673,974.97L710.462,974.97L710.462,1118.45L583.694,1118.45L583.694,716.246L864.314,716.246L864.314,830.338L710.462,830.338Z" style="fill:rgb(107,34,211);fill-rule:nonzero;stroke:rgb(236,232,232);stroke-width:19.88px;"/>
    </g>
    <g transform="matrix(0.529596,0,0,0.543681,32.6775,-318.172)">
        <path d="M1157.61,842.439L1157.61,1118.45L1037.18,1118.45L1037.18,1090.79C1030.65,1101.93 1021.53,1110.96 1009.81,1117.87C998.093,1124.79 982.439,1128.25 962.848,1128.25C935.957,1128.25 915.501,1120.47 901.48,1104.91C887.459,1089.35 880.448,1065.44 880.448,1033.17L880.448,842.439L1000.88,842.439L1000.88,994.561C1000.88,1004.55 1002.32,1011.46 1005.2,1015.31C1008.08,1019.15 1012.6,1021.07 1018.74,1021.07C1026.81,1021.07 1032.95,1016.84 1037.18,1008.39L1037.18,842.439L1157.61,842.439Z" style="fill:rgb(107,34,211);fill-rule:nonzero;stroke:rgb(236,232,232);stroke-width:19.88px;"/>
    </g>
    <g transform="matrix(0.529596,0,0,0.543681,32.6775,-318.172)">
        <rect x="1187.57" y="687.435" width="120.43" height="431.014" style="fill:rgb(107,34,211);fill-rule:nonzero;stroke:rgb(236,232,232);stroke-width:19.88px;"/>
    </g>
    <g transform="matrix(0.529596,0,0,0.543681,32.6775,-318.172)">
        <rect x="1337.97" y="687.435" width="120.43" height="431.014" style="fill:rgb(107,34,211);fill-rule:nonzero;stroke:rgb(236,232,232);stroke-width:19.88px;"/>
    </g>
    <g transform="matrix(0.529596,0,0,0.543681,32.6775,-318.172)">
        <rect x="1491.82" y="911.009" width="200.525" height="101.991" style="fill:rgb(107,34,211);fill-rule:nonzero;stroke:rgb(236,232,232);stroke-width:19.88px;"/>
    </g>
    <g transform="matrix(0.529596,0,0,0.543681,32.6775,-318.172)">
        <path d="M1847.35,1128.25C1819.69,1128.25 1795.2,1125.17 1773.88,1119.03C1752.56,1112.88 1731.91,1103.28 1711.94,1090.21L1754.58,974.97C1766.49,986.11 1779.35,994.945 1793.18,1001.48C1807.01,1008.01 1823.72,1011.27 1843.32,1011.27C1852.53,1011.27 1860.03,1010.31 1865.79,1008.39C1871.55,1006.47 1874.43,1002.63 1874.43,996.866C1874.43,991.488 1872.03,987.551 1867.23,985.054C1862.43,982.557 1854.45,979.772 1843.32,976.698C1802.6,964.79 1772.15,948.079 1751.98,926.567C1731.82,905.055 1721.73,875.667 1721.73,838.405C1721.73,819.198 1724.61,801.623 1730.38,785.681C1736.14,769.739 1744.88,755.909 1756.59,744.193C1768.31,732.476 1782.91,723.353 1800.39,716.822C1817.87,710.292 1838.13,707.027 1861.18,707.027C1891.14,707.027 1917.94,709.908 1941.56,715.67C1965.19,721.432 1986.79,729.883 2006.39,741.024L1948.19,849.93C1937.05,840.71 1924.08,833.699 1909.29,828.897C1894.5,824.096 1881.15,821.695 1869.25,821.695C1856.57,821.695 1850.23,825.536 1850.23,833.219C1850.23,837.445 1852.44,840.998 1856.86,843.879C1861.27,846.76 1870.4,850.314 1884.23,854.539C1898.82,858.765 1913.23,864.143 1927.44,870.674C1941.66,877.204 1954.33,885.751 1965.47,896.315C1976.61,906.879 1985.64,919.748 1992.56,934.922C1999.47,950.096 2002.93,968.439 2002.93,989.951C2002.93,1013.77 1999.28,1034.42 1991.98,1051.89C1984.68,1069.37 1974.31,1083.78 1960.86,1095.11C1947.42,1106.44 1931.09,1114.8 1911.88,1120.18C1892.68,1125.56 1871.17,1128.25 1847.35,1128.25Z" style="fill:rgb(107,34,211);fill-rule:nonzero;stroke:rgb(236,232,232);stroke-width:19.88px;"/>
    </g>
    <g transform="matrix(0.529596,0,0,0.543681,32.6775,-318.172)">
        <path d="M2229.38,1105.2C2215.94,1112.88 2201.44,1118.64 2185.88,1122.48C2170.32,1126.32 2152.75,1128.25 2133.16,1128.25C2101.65,1128.25 2077.26,1119.41 2059.97,1101.74C2042.69,1084.07 2034.04,1054.49 2034.04,1013L2034.04,931.753L2013.88,931.753L2013.88,842.439L2034.04,842.439L2034.04,764.072L2154.47,764.072L2154.47,842.439L2209.79,842.439L2209.79,931.753L2154.47,931.753L2154.47,996.866C2154.47,1013.77 2160.05,1022.22 2171.18,1022.22C2176.56,1022.22 2181.37,1021.45 2185.59,1019.92C2189.82,1018.38 2194.62,1016.07 2200,1013L2229.38,1105.2Z" style="fill:rgb(107,34,211);fill-rule:nonzero;stroke:rgb(236,232,232);stroke-width:19.88px;"/>
    </g>
    <g transform="matrix(0.529596,0,0,0.543681,32.6775,-318.172)">
        <path d="M2378.62,832.643C2420.88,832.643 2452.28,842.439 2472.84,862.03C2493.39,881.622 2503.66,914.274 2503.66,959.988L2503.66,1118.45L2387.27,1118.45L2387.27,1105.2C2378.05,1112.88 2367.58,1118.64 2355.86,1122.48C2344.15,1126.32 2331.57,1128.25 2318.12,1128.25C2293.92,1128.25 2273.85,1121.14 2257.91,1106.92C2241.96,1092.71 2233.99,1070.05 2233.99,1038.93C2233.99,1023.18 2236.68,1010.12 2242.06,999.747C2247.44,989.375 2254.26,981.02 2262.52,974.682C2270.78,968.343 2280.19,963.829 2290.75,961.14C2301.32,958.451 2311.78,957.107 2322.16,957.107C2336.75,957.107 2349.33,958.547 2359.9,961.429C2370.46,964.31 2379.59,968.055 2387.27,972.665L2387.27,971.512C2387.27,957.299 2384.48,947.407 2378.91,941.837C2373.34,936.267 2363.84,933.482 2350.39,933.482C2336.18,933.482 2323.69,935.114 2312.94,938.38C2302.18,941.645 2292.96,945.39 2285.28,949.616L2246.09,866.064C2259.92,857.228 2277.88,849.449 2299.97,842.727C2322.06,836.004 2348.28,832.643 2378.62,832.643ZM2364.8,1051.61C2369.41,1051.61 2373.63,1050.74 2377.47,1049.01C2381.31,1047.29 2384.58,1044.31 2387.27,1040.08L2387.27,1027.41C2381.51,1019.72 2374.01,1015.88 2364.8,1015.88C2352.12,1015.88 2345.78,1022.03 2345.78,1034.32C2345.78,1045.85 2352.12,1051.61 2364.8,1051.61Z" style="fill:rgb(107,34,211);fill-rule:nonzero;stroke:rgb(236,232,232);stroke-width:19.88px;"/>
    </g>
    <g transform="matrix(0.529596,0,0,0.543681,32.6775,-318.172)">
        <path d="M2780.83,1080.42C2768.92,1095.02 2752.5,1106.64 2731.56,1115.28C2710.62,1123.92 2687.29,1128.25 2661.55,1128.25C2642.34,1128.25 2624.38,1125.27 2607.67,1119.31C2590.96,1113.36 2576.37,1104.24 2563.88,1091.94C2551.4,1079.65 2541.6,1064.28 2534.49,1045.85C2527.39,1027.41 2523.83,1005.51 2523.83,980.156C2523.83,955.954 2527.67,934.634 2535.36,916.195C2543.04,897.756 2553.6,882.294 2567.05,869.809C2580.49,857.324 2596.44,848.009 2614.88,841.862C2633.32,835.716 2653.1,832.643 2674.23,832.643C2696.51,832.643 2716.48,836.292 2734.15,843.591C2751.83,850.89 2767,860.878 2779.68,873.555L2708.8,952.497C2705.73,948.271 2701.5,945.006 2696.12,942.701C2690.74,940.396 2684.02,939.244 2675.96,939.244C2664.43,939.244 2655.79,942.989 2650.03,950.48C2644.26,957.971 2641.38,967.479 2641.38,979.003C2641.38,990.912 2644.26,1000.71 2650.03,1008.39C2655.79,1016.07 2664.24,1019.92 2675.38,1019.92C2684.22,1019.92 2691.9,1018.09 2698.43,1014.44C2704.96,1010.79 2710.34,1006.09 2714.56,1000.32L2780.83,1080.42Z" style="fill:rgb(107,34,211);fill-rule:nonzero;stroke:rgb(236,232,232);stroke-width:19.88px;"/>
    </g>
    <g transform="matrix(0.529596,0,0,0.543681,32.6775,-318.172)">
        <path d="M3025.72,936.939L3105.82,1118.45L2962.91,1118.45L2934.1,1042.39L2915.66,1063.71L2915.66,1118.45L2795.23,1118.45L2795.23,687.435L2915.66,687.435L2915.66,913.314L2968.1,842.439L3108.12,842.439L3025.72,936.939Z" style="fill:rgb(107,34,211);fill-rule:nonzero;stroke:rgb(236,232,232);stroke-width:19.88px;"/>
    </g>
    <g transform="matrix(0.800829,0,0,0.800829,818.599,-1266.29)">
        <path d="M543.654,1706.92C552.986,1706.92 561.253,1703.64 566.901,1696.93L557.815,1688.58C553.968,1692.59 549.139,1694.72 543.736,1694.72C534.404,1694.72 527.119,1687.85 527.119,1677.2C527.119,1666.73 534.404,1659.77 543.818,1659.77C549.548,1659.77 554.05,1661.9 557.652,1665.83L566.738,1657.39C560.68,1650.85 552.658,1647.65 543.163,1647.65C525.728,1647.65 512.631,1660.26 512.631,1677.29C512.631,1694.31 526.055,1706.92 543.654,1706.92Z" style="fill:white;fill-rule:nonzero;"/>
        <path d="M618.061,1705.93L618.061,1693.98L588.511,1693.98L588.511,1648.64L574.596,1648.64L574.596,1705.93L618.061,1705.93Z" style="fill:white;fill-rule:nonzero;"/>
        <path d="M648.839,1706.92C665.211,1706.92 675.361,1697.18 675.361,1681.54L675.361,1648.64L661.363,1648.64L661.363,1680.23C661.363,1688.99 656.698,1693.74 648.839,1693.74C641.145,1693.74 636.561,1688.99 636.561,1680.23L636.561,1648.64L622.4,1648.64L622.4,1681.54C622.4,1697.18 632.714,1706.92 648.839,1706.92Z" style="fill:white;fill-rule:nonzero;"/>
        <path d="M727.585,1676.22C732.988,1674.09 736.426,1669.18 736.426,1663.12C736.426,1653.96 728.813,1648.64 716.207,1648.64L686.411,1648.64L686.411,1705.93L716.944,1705.93C730.532,1705.93 738.799,1700.04 738.799,1690.38C738.799,1683.51 734.461,1678.27 727.585,1676.22ZM713.506,1660.01C719.645,1660.01 722.592,1661.82 722.592,1665.91C722.592,1669.84 719.809,1671.97 713.506,1671.97L700.491,1671.97L700.491,1660.01L713.506,1660.01ZM700.491,1694.56L700.491,1682.12L714.815,1682.12C721.446,1682.12 724.802,1684 724.802,1688.42C724.802,1692.43 721.855,1694.56 715.061,1694.56L700.491,1694.56Z" style="fill:white;fill-rule:nonzero;"/>
        <path d="M762.046,1682.12L791.105,1682.12L791.105,1671.06L762.046,1671.06L762.046,1660.26L794.871,1660.26L794.871,1648.64L748.213,1648.64L748.213,1705.93L795.689,1705.93L795.689,1694.31L762.046,1694.31L762.046,1682.12Z" style="fill:white;fill-rule:nonzero;"/>
    </g>
    <g transform="matrix(2.38726,0,0,2.38726,-722.31,-345.25)">
        <g transform="matrix(127.327,0,0,127.327,325.841,262.409)">
            <path d="M0.421,0.012C0.535,0.012 0.636,-0.028 0.706,-0.11L0.596,-0.21C0.549,-0.161 0.488,-0.132 0.422,-0.132C0.308,-0.132 0.215,-0.221 0.215,-0.351C0.215,-0.479 0.308,-0.57 0.424,-0.57C0.493,-0.57 0.549,-0.542 0.593,-0.494L0.704,-0.593C0.629,-0.673 0.531,-0.712 0.415,-0.712C0.202,-0.712 0.042,-0.558 0.042,-0.35C0.042,-0.142 0.206,0.012 0.421,0.012Z" style="fill:url(#_Linear1);fill-rule:nonzero;stroke:white;stroke-width:0.04px;"/>
        </g>
        <g transform="matrix(-5.01227e-16,2.72855,-2.72855,-5.01227e-16,469.961,-99.5072)">
            <g id="Timer">
                <path d="M115.319,35.184L110.798,27.362C110.686,27.168 110.903,26.952 111.096,27.064L118.903,31.591C120.606,32.579 120.898,34.469 119.625,35.905C118.193,37.179 116.302,36.886 115.319,35.184Z" style="fill:rgb(97,0,213);stroke:white;stroke-width:0.82px;"/>
            </g>
        </g>
    </g>
    <defs>
        <linearGradient id="_Linear1" x1="0" y1="0" x2="1" y2="0" gradientUnits="userSpaceOnUse" gradientTransform="matrix(0.0165412,-0.51929,0.566213,0.0180359,0.646695,-0.0739303)"><stop offset="0" style="stop-color:rgb(86,0,226);stop-opacity:1"/><stop offset="1" style="stop-color:rgb(255,0,0);stop-opacity:1"/></linearGradient>
    </defs>
</svg>
